<svg width="16" height="17" viewBox="0 0 16 17" fill="none" xmlns="http://www.w3.org/2000/svg">
<g clip-path="url(#clip0_1_99)">
<path d="M8 0.5C3.58204 0.5 0 4.08204 0 8.5C0 12.918 3.58204 16.5 8 16.5C12.418 16.5 16 12.918 16 8.5C16 4.08204 12.418 0.5 8 0.5ZM8 14.7727C4.53224 14.7727 1.72735 11.9678 1.72735 8.5C1.72735 5.03224 4.53224 2.22735 8 2.22735C11.4678 2.22735 14.2727 5.03224 14.2727 8.5C14.2727 11.9678 11.4678 14.7727 8 14.7727Z" fill="#FEEB00"/>
<path d="M8.00026 2.93945C4.92761 2.93945 2.43945 5.42761 2.43945 8.50026C2.43945 11.5729 4.92761 14.0611 8.00026 14.0611C11.0729 14.0611 13.5611 11.5729 13.5611 8.50026C13.5611 5.42761 11.0729 2.93945 8.00026 2.93945ZM10.9456 8.83006H8.33006V9.17291C8.33006 9.34924 8.18965 9.50271 8.00026 9.50271C7.81087 9.50271 7.67047 9.3623 7.67047 9.17291V8.83006H7.37986C7.20353 8.83006 7.05006 8.68965 7.05006 8.50026C7.05006 8.31087 7.19047 8.17047 7.37986 8.17047H7.67047V4.00394C7.67047 3.82762 7.81087 3.67415 8.00026 3.67415C8.18965 3.67415 8.33006 3.81455 8.33006 4.00394V8.18026H10.9456C11.1219 8.18026 11.2754 8.32067 11.2754 8.51006C11.2754 8.69945 11.1252 8.83006 10.9456 8.83006Z" fill="#FEEB00"/>
</g>
<defs>
<clipPath id="clip0_1_99">
<rect width="16" height="16" fill="white" transform="translate(0 0.5)"/>
</clipPath>
</defs>
</svg>
