<svg width="16" height="17" viewBox="0 0 16 17" fill="none" xmlns="http://www.w3.org/2000/svg">
<path d="M8 0.500032C3.60904 0.500032 0.0358368 4.07337 0.000282462 8.4467C-0.0174499 10.58 0.800222 12.6067 2.31134 14.1178C3.80459 15.6467 5.81344 16.4823 7.9467 16.5H8.00002C12.391 16.5 15.9642 12.9267 15.9997 8.55333C16.0353 4.14444 12.4621 0.535556 8.00002 0.5L8 0.500032ZM11.8754 11.1667L11.5199 11.5222C10.9333 12.1089 10.4355 12.2511 9.65327 12.02C8.83546 11.7711 8.10669 11.3267 7.44888 10.7933C6.50669 10.0289 5.49333 9.03327 4.83563 8.00213C4.17791 6.9354 3.96452 5.81549 4.88896 4.89102L5.24447 4.53549C5.49334 4.28661 5.90219 4.28661 6.16891 4.53549L7.21773 5.58435C7.4666 5.83323 7.4666 6.24209 7.21773 6.50882L6.59547 7.13111L6.6132 7.14884C7.30651 8.1977 8.21308 9.10446 9.26203 9.79776L9.27976 9.8155L9.90202 9.19321C10.1509 8.94433 10.5597 8.94433 10.8265 9.19321L11.8753 10.2421C12.1421 10.5089 12.1421 10.9178 11.8754 11.1667L11.8754 11.1667Z" fill="#FEEB00"/>
</svg>
