<svg width="15" height="16" viewBox="0 0 15 16" fill="none" xmlns="http://www.w3.org/2000/svg">
<g clip-path="url(#clip0_1_89)">
<path d="M6 6.99575C6 6.16893 6.67183 5.49707 7.5 5.49707C8.32817 5.49707 9 6.16893 9 6.99575C9 7.82259 8.32816 8.49447 7.5 8.49447C6.67184 8.49447 6 7.82259 6 6.99575Z" fill="#FEEB00"/>
<path fill-rule="evenodd" clip-rule="evenodd" d="M1 6.99606C1 3.40877 3.91117 0.5 7.5 0.5C11.0888 0.5 14 3.40877 14 6.99606C14 9.6701 12.6617 11.7886 11.2284 13.2209C10.5102 13.9387 9.75773 14.4953 9.11325 14.8751C8.79117 15.0649 8.49017 15.2141 8.22849 15.3174C7.98144 15.4149 7.72211 15.4909 7.5 15.4909C7.27789 15.4909 7.01856 15.4149 6.77151 15.3174C6.50983 15.2141 6.20883 15.0649 5.88675 14.8751C5.24227 14.4953 4.48984 13.9387 3.77156 13.2209C2.33829 11.7886 1 9.6701 1 6.99606ZM7.5 4.49738C6.12017 4.49738 5 5.61633 5 6.99606C5 8.37579 6.12016 9.49478 7.5 9.49478C8.87984 9.49478 10 8.37579 10 6.99606C10 5.61633 8.87983 4.49738 7.5 4.49738Z" fill="#FEEB00"/>
</g>
<defs>
<clipPath id="clip0_1_89">
<rect width="15" height="15" fill="white" transform="translate(0 0.5)"/>
</clipPath>
</defs>
</svg>
