<svg width="17" height="16" viewBox="0 0 17 16" fill="none" xmlns="http://www.w3.org/2000/svg">
<path fill-rule="evenodd" clip-rule="evenodd" d="M8.74702 0.227052C10.6438 0.213599 14.6553 0.501478 15.527 1.76061C16.6166 3.33453 16.8184 4.90843 16.6973 7.12806C16.5762 9.34768 16.4148 11.2041 14.962 11.7691C13.7997 12.2211 13.5091 12.361 13.5091 12.3744V15.2398C13.4553 15.2532 13.154 15.1106 12.3791 14.4326C12.0651 14.1578 11.7765 13.8958 11.5216 13.6643C10.9904 13.182 10.6056 12.8326 10.442 12.778C10.3987 12.7636 10.142 12.7633 9.74311 12.763C7.91317 12.7614 3.08939 12.7571 2.12851 11.3655C0.95816 9.67053 0.877446 8.37912 0.917803 6.32092C0.95816 4.26272 1.07923 2.28524 2.24958 1.59917C3.41992 0.913107 4.87277 0.227052 8.74702 0.227052ZM8.90837 3.01176H12.0966C12.2311 3.01176 12.5001 3.08441 12.5001 3.37498V4.90853C12.5136 5.05651 12.4517 5.35246 12.0966 5.35246H10.563C10.415 5.32555 10.1191 5.37667 10.1191 5.79638V9.91278C10.1191 10.0473 10.0626 10.3163 9.83657 10.3163H7.9398C7.83218 10.3163 7.61695 10.2195 7.61695 9.83207V5.79638C7.61695 5.64841 7.54431 5.35246 7.25374 5.35246H5.67982C5.53185 5.35246 5.2359 5.26367 5.2359 4.90853V3.37498C5.22244 3.25391 5.2924 3.01176 5.67982 3.01176H8.90837Z" fill="black"/>
</svg>
