<svg width="16" height="9" viewBox="0 0 16 9" fill="none" xmlns="http://www.w3.org/2000/svg">
<path d="M14.2417 6.30886C14.2417 6.30886 15.5353 7.5659 15.8553 8.14759C15.8615 8.15598 15.8664 8.16527 15.8697 8.17514C16.0001 8.39002 16.0321 8.55847 15.9681 8.68283C15.8601 8.88827 15.4945 8.99139 15.3705 9.00005H13.0841C12.9249 9.00005 12.5937 8.95912 12.1905 8.6852C11.8825 8.47346 11.5761 8.12476 11.2793 7.78394C10.8361 7.27781 10.4529 6.8386 10.0649 6.8386C10.0159 6.83849 9.9672 6.84648 9.92088 6.86221C9.62728 6.95352 9.25448 7.36518 9.25448 8.46165C9.25448 8.80484 8.97928 9.00005 8.78648 9.00005H7.73928C7.38248 9.00005 5.52488 8.87725 3.87768 7.1684C1.85927 5.07622 0.0464721 0.879266 0.0288721 0.842271C-0.083928 0.570712 0.152872 0.422733 0.408872 0.422733H2.71767C3.02728 0.422733 3.12808 0.60692 3.19848 0.772216C3.28008 0.961914 3.58248 1.7207 4.07848 2.57316C4.88168 3.96008 5.37528 4.52445 5.76968 4.52445C5.84378 4.52466 5.91662 4.50566 5.98088 4.46935C6.49608 4.19071 6.40008 2.38032 6.37608 2.00722C6.37608 1.9348 6.37528 1.19884 6.11128 0.843058C5.92248 0.588029 5.60088 0.488851 5.40648 0.452643C5.45848 0.378653 5.56888 0.265307 5.71048 0.198401C6.06328 0.0252337 6.70088 4.57764e-05 7.33368 4.57764e-05H7.68488C8.37128 0.00949129 8.54888 0.0527832 8.79848 0.114966C9.30088 0.233035 9.31048 0.553396 9.26648 1.64435C9.25368 1.95605 9.24008 2.30711 9.24008 2.72035C9.24008 2.80851 9.23608 2.9069 9.23608 3.00687C9.22088 3.56651 9.20088 4.197 9.60248 4.45597C9.65457 4.48789 9.71472 4.5048 9.77608 4.50477C9.91528 4.50477 10.3321 4.50477 11.4625 2.59599C11.9585 1.75298 12.3425 0.758835 12.3689 0.684058C12.3913 0.642341 12.4585 0.525059 12.5401 0.477831C12.5981 0.447444 12.6632 0.432265 12.7289 0.433752H15.4449C15.7409 0.433752 15.9417 0.477832 15.9809 0.588029C16.0465 0.766707 15.9681 1.31218 14.7281 2.962C14.5193 3.23671 14.3361 3.47442 14.1753 3.68222C13.0513 5.13368 13.0513 5.20689 14.2417 6.30886Z" fill="black"/>
</svg>
