<svg width="17" height="11" viewBox="0 0 17 11" fill="none" xmlns="http://www.w3.org/2000/svg">
<path d="M0.53125 0.585983V10.4141H5.2793C5.71924 10.4141 8.74902 10.3249 8.74902 7.55864C8.74902 5.83 7.55994 5.24272 6.95605 5.06841C7.40015 4.85881 8.28418 4.36076 8.28418 3.02641C8.28418 2.28349 8.17834 0.585983 5.14648 0.585983H0.53125ZM11.3555 1.49907V2.39555H15.0244V1.49907H11.3555ZM2.68945 2.26274H4.71484C4.90576 2.26274 6.19238 2.16106 6.19238 3.39165C6.19238 4.44377 5.2627 4.55376 4.88086 4.55376H2.68945V2.26274ZM13.2812 3.20903C10.5067 3.20903 9.92773 5.61833 9.92773 6.66216C9.92773 9.76042 12.4678 10.1153 13.2812 10.1153C15.4747 10.1153 16.0973 8.69585 16.3525 7.90727H14.7588C14.6965 8.11064 14.2317 8.77055 13.3477 8.77055C11.866 8.77055 11.7373 7.6126 11.7373 7.0938H16.4521C16.5476 5.30083 15.7632 3.20903 13.2812 3.20903ZM13.2314 4.55376C13.6735 4.55376 14.0304 4.68242 14.2441 4.91899C14.4579 5.15764 14.6156 5.50627 14.6592 5.96489H11.7373C11.7456 5.8383 11.7747 5.69304 11.8203 5.53325C11.866 5.36931 11.9365 5.21367 12.0527 5.06841C12.1689 4.92522 12.3308 4.8007 12.5176 4.70317C12.7085 4.60356 12.9451 4.55376 13.2314 4.55376ZM2.68945 6.0313H5.03027C5.49512 6.0313 6.59082 6.10393 6.59082 7.44243C6.59082 8.73943 5.21082 8.73735 4.99707 8.73735H2.68945V6.0313Z" fill="black"/>
</svg>
